ffmpeg started on 2016-11-27 at 00:17:33
Report written to "Output/NVENCh264/results/ffmpeg/old_town_cross_2160p50llhq500k.log"
Command line:
Tools/ffmpeg/ffmpeg -benchmark -y -i Input/y4m/old_town_cross_2160p50.y4m -c:v h264_nvenc -preset llhq -b:v 500k -an Output/NVENCh264/encoded/old_town_cross_2160p50llhq500k.mkv
ffmpeg version N-82227-gdb23fde Copyright (c) 2000-2016 the FFmpeg developers
  built with gcc 5.4.0 (Ubuntu 5.4.0-6ubuntu1~16.04.2) 20160609
  configuration: --prefix=/home/jaroslav/ffmpeg_build --pkg-config-flags=--static --extra-cflags=-I/home/jaroslav/ffmpeg_build/include --extra-ldflags=-L/home/jaroslav/ffmpeg_build/lib --bindir=/home/jaroslav/bin --enable-gpl --enable-libass --enable-libfdk-aac --enable-libfreetype --enable-libmp3lame --enable-libopus --enable-libtheora --enable-libvorbis --enable-libvpx --enable-libx264 --enable-libx265 --enable-nvenc --enable-libmfx --enable-libxvid --enable-libgsm --enable-libopencore-amrnb --enable-version3 --enable-nonfree
  libavutil      55. 35.100 / 55. 35.100
  libavcodec     57. 66.101 / 57. 66.101
  libavformat    57. 57.100 / 57. 57.100
  libavdevice    57.  2.100 / 57.  2.100
  libavfilter     6. 66.100 /  6. 66.100
  libswscale      4.  3.100 /  4.  3.100
  libswresample   2.  4.100 /  2.  4.100
  libpostproc    54.  2.100 / 54.  2.100
Input #0, yuv4mpegpipe, from 'Input/y4m/old_town_cross_2160p50.y4m':
  Duration: 00:00:10.00, start: 0.000000, bitrate: 4976642 kb/s
    Stream #0:0: Video: rawvideo (I420 / 0x30323449), yuv420p(progressive), 3840x2160, SAR 1:1 DAR 16:9, 50 fps, 50 tbr, 50 tbn, 50 tbc
[h264_nvenc @ 0x2c67120] The variable bitrate rate-control requires the 'qmin' and/or 'qmax' option set.
Output #0, matroska, to 'Output/NVENCh264/encoded/old_town_cross_2160p50llhq500k.mkv':
  Metadata:
    encoder         : Lavf57.57.100
    Stream #0:0: Video: h264 (h264_nvenc) (Main) (H264 / 0x34363248), yuv420p, 3840x2160 [SAR 1:1 DAR 16:9], q=-1--1, 500 kb/s, 50 fps, 1k tbn, 50 tbc
    Metadata:
      encoder         : Lavc57.66.101 h264_nvenc
    Side data:
      cpb: bitrate max/min/avg: 0/0/500000 buffer size: 1000000 vbv_delay: -1
Stream mapping:
  Stream #0:0 -> #0:0 (rawvideo (native) -> h264 (h264_nvenc))
Press [q] to stop, [?] for help
frame=    6 fps=0.0 q=0.0 size=       0kB time=00:00:00.00 bitrate=N/A speed=   0x    frame=   24 fps= 19 q=0.0 size=       0kB time=00:00:00.00 bitrate=N/A speed=   0x    frame=   42 fps= 24 q=48.0 size=       1kB time=00:00:00.22 bitrate=  26.9kbits/s speed=0.124x    frame=   51 fps= 22 q=49.0 size=       1kB time=00:00:00.40 bitrate=  14.8kbits/s speed=0.174x    frame=   69 fps= 24 q=49.0 size=       1kB time=00:00:00.76 bitrate=   7.8kbits/s speed=0.27x    frame=   87 fps= 26 q=49.0 size=       1kB time=00:00:01.12 bitrate=   5.3kbits/s speed=0.336x    frame=  105 fps= 27 q=49.0 size=       1kB time=00:00:01.48 bitrate=   4.0kbits/s speed=0.385x    frame=  123 fps= 28 q=49.0 size=       1kB time=00:00:01.84 bitrate=   3.2kbits/s speed=0.422x    frame=  141 fps= 29 q=49.0 size=       1kB time=00:00:02.20 bitrate=   2.7kbits/s speed=0.451x    frame=  159 fps= 30 q=49.0 size=       1kB time=00:00:02.56 bitrate=   2.3kbits/s speed=0.475x    frame=  177 fps= 30 q=49.0 size=       1kB time=00:00:02.92 bitrate=   2.0kbits/s speed=0.495x    frame=  195 fps= 30 q=49.0 size=       1kB time=00:00:03.28 bitrate=   1.8kbits/s speed=0.512x    frame=  213 fps= 31 q=49.0 size=       1kB time=00:00:03.64 bitrate=   1.6kbits/s speed=0.526x    frame=  231 fps= 31 q=49.0 size=       1kB time=00:00:04.00 bitrate=   1.5kbits/s speed=0.539x    frame=  242 fps= 30 q=49.0 size=       1kB time=00:00:04.22 bitrate=   1.4kbits/s speed=0.528x    frame=  260 fps= 31 q=49.0 size=       1kB time=00:00:04.58 bitrate=   1.3kbits/s speed=0.538x    frame=  278 fps= 31 q=49.0 size=       1kB time=00:00:04.94 bitrate=   1.2kbits/s speed=0.548x    frame=  296 fps= 31 q=49.0 size=    1122kB time=00:00:05.30 bitrate=1734.6kbits/s speed=0.556x    frame=  314 fps= 31 q=49.0 size=    1122kB time=00:00:05.66 bitrate=1624.3kbits/s speed=0.563x    frame=  332 fps= 31 q=49.0 size=    1122kB time=00:00:06.02 bitrate=1527.2kbits/s speed=0.57x    frame=  350 fps= 32 q=49.0 size=    1122kB time=00:00:06.38 bitrate=1441.0kbits/s speed=0.576x    frame=  368 fps= 32 q=49.0 size=    1122kB time=00:00:06.74 bitrate=1364.1kbits/s speed=0.582x    frame=  386 fps= 32 q=49.0 size=    1122kB time=00:00:07.10 bitrate=1294.9kbits/s speed=0.587x    frame=  393 fps= 31 q=49.0 size=    1122kB time=00:00:07.24 bitrate=1269.9kbits/s speed=0.574x    frame=  411 fps= 31 q=49.0 size=    1122kB time=00:00:07.60 bitrate=1209.7kbits/s speed=0.578x    frame=  429 fps= 31 q=49.0 size=    1122kB time=00:00:07.96 bitrate=1155.0kbits/s speed=0.583x    frame=  447 fps= 32 q=49.0 size=    1122kB time=00:00:08.32 bitrate=1105.1kbits/s speed=0.588x    frame=  465 fps= 32 q=49.0 size=    1122kB time=00:00:08.68 bitrate=1059.2kbits/s speed=0.592x    frame=  483 fps= 32 q=49.0 size=    1122kB time=00:00:09.04 bitrate=1017.1kbits/s speed=0.595x    frame=  500 fps= 32 q=49.0 size=    1122kB time=00:00:09.38 bitrate= 980.2kbits/s speed=0.597x    frame=  500 fps= 32 q=49.0 Lsize=    2542kB time=00:00:09.98 bitrate=2086.6kbits/s speed=0.635x    
video:2538kB audio:0kB subtitle:0kB other streams:0kB global headers:0kB muxing overhead: 0.166643%
bench: utime=1.172s
bench: maxrss=1396680kB
